<svg width="85" height="17" viewBox="0 0 85 17" fill="none" xmlns="http://www.w3.org/2000/svg">
<path d="M13.62 2H15.78V16H13.6L2.42 5C2.5 5.86667 2.58 6.73333 2.66 7.6C2.75333 8.45333 2.8 9.31333 2.8 10.18V16H0.64V2H2.78L13.96 13.28C13.8667 12.6267 13.7933 11.9133 13.74 11.14C13.7 10.3667 13.6667 9.59333 13.64 8.82C13.6267 8.03333 13.62 7.29333 13.62 6.6V2ZM35.1019 5.5V16H33.0419V14.18C32.7619 14.5267 32.3685 14.8533 31.8619 15.16C31.3552 15.4667 30.7752 15.72 30.1219 15.92C29.4685 16.1067 28.7819 16.2 28.0619 16.2C26.7952 16.2 25.6885 15.9667 24.7419 15.5C23.8085 15.0333 23.0885 14.3867 22.5819 13.56C22.0752 12.7333 21.8219 11.7933 21.8219 10.74C21.8219 9.67333 22.0885 8.73333 22.6219 7.92C23.1685 7.09333 23.9152 6.44667 24.8619 5.98C25.8219 5.51333 26.9285 5.28 28.1819 5.28C29.2619 5.28 30.2285 5.45333 31.0819 5.8C31.9485 6.13333 32.6019 6.53333 33.0419 7V5.5H35.1019ZM28.5219 14.3C29.4419 14.3 30.2419 14.1467 30.9219 13.84C31.6152 13.52 32.1552 13.0933 32.5419 12.56C32.9285 12.0267 33.1219 11.42 33.1219 10.74C33.1219 10.06 32.9285 9.45333 32.5419 8.92C32.1552 8.38667 31.6152 7.96667 30.9219 7.66C30.2419 7.35333 29.4419 7.2 28.5219 7.2C27.6285 7.2 26.8352 7.35333 26.1419 7.66C25.4485 7.96667 24.9019 8.38667 24.5019 8.92C24.1152 9.45333 23.9219 10.06 23.9219 10.74C23.9219 11.42 24.1152 12.0267 24.5019 12.56C24.9019 13.0933 25.4485 13.52 26.1419 13.84C26.8352 14.1467 27.6285 14.3 28.5219 14.3ZM54.7894 1.2V16H52.7294V14.18C52.4494 14.5267 52.056 14.8533 51.5494 15.16C51.0427 15.4667 50.4627 15.72 49.8094 15.92C49.156 16.1067 48.4694 16.2 47.7494 16.2C46.4827 16.2 45.376 15.9667 44.4294 15.5C43.496 15.0333 42.776 14.3867 42.2694 13.56C41.7627 12.7333 41.5094 11.7933 41.5094 10.74C41.5094 9.67333 41.776 8.73333 42.3094 7.92C42.856 7.09333 43.6027 6.44667 44.5494 5.98C45.5094 5.51333 46.616 5.28 47.8694 5.28C48.9494 5.28 49.916 5.45333 50.7694 5.8C51.636 6.13333 52.2894 6.53333 52.7294 7V1.2H54.7894ZM48.2094 14.3C49.1294 14.3 49.9294 14.1467 50.6094 13.84C51.3027 13.52 51.8427 13.0933 52.2294 12.56C52.616 12.0267 52.8094 11.42 52.8094 10.74C52.8094 10.06 52.616 9.45333 52.2294 8.92C51.8427 8.38667 51.3027 7.96667 50.6094 7.66C49.9294 7.35333 49.1294 7.2 48.2094 7.2C47.316 7.2 46.5227 7.35333 45.8294 7.66C45.136 7.96667 44.5894 8.38667 44.1894 8.92C43.8027 9.45333 43.6094 10.06 43.6094 10.74C43.6094 11.42 43.8027 12.0267 44.1894 12.56C44.5894 13.0933 45.136 13.52 45.8294 13.84C46.5227 14.1467 47.316 14.3 48.2094 14.3ZM63.7667 3.22C63.3001 3.22 62.9534 3.1 62.7267 2.86C62.5001 2.62 62.3867 2.30667 62.3867 1.92C62.3867 1.58667 62.5001 1.28667 62.7267 1.02C62.9534 0.753333 63.3001 0.619999 63.7667 0.619999C64.2334 0.619999 64.5801 0.739999 64.8067 0.979999C65.0334 1.22 65.1467 1.53333 65.1467 1.92C65.1467 2.25333 65.0334 2.55333 64.8067 2.82C64.5801 3.08667 64.2334 3.22 63.7667 3.22ZM64.7867 16H62.7267V5.5H64.7867V16ZM84.8284 5.5V16H82.7684V14.18C82.4884 14.5267 82.0951 14.8533 81.5884 15.16C81.0818 15.4667 80.5018 15.72 79.8484 15.92C79.1951 16.1067 78.5084 16.2 77.7884 16.2C76.5218 16.2 75.4151 15.9667 74.4684 15.5C73.5351 15.0333 72.8151 14.3867 72.3084 13.56C71.8018 12.7333 71.5484 11.7933 71.5484 10.74C71.5484 9.67333 71.8151 8.73333 72.3484 7.92C72.8951 7.09333 73.6418 6.44667 74.5884 5.98C75.5484 5.51333 76.6551 5.28 77.9084 5.28C78.9884 5.28 79.9551 5.45333 80.8084 5.8C81.6751 6.13333 82.3284 6.53333 82.7684 7V5.5H84.8284ZM78.2484 14.3C79.1684 14.3 79.9684 14.1467 80.6484 13.84C81.3418 13.52 81.8818 13.0933 82.2684 12.56C82.6551 12.0267 82.8484 11.42 82.8484 10.74C82.8484 10.06 82.6551 9.45333 82.2684 8.92C81.8818 8.38667 81.3418 7.96667 80.6484 7.66C79.9684 7.35333 79.1684 7.2 78.2484 7.2C77.3551 7.2 76.5618 7.35333 75.8684 7.66C75.1751 7.96667 74.6284 8.38667 74.2284 8.92C73.8418 9.45333 73.6484 10.06 73.6484 10.74C73.6484 11.42 73.8418 12.0267 74.2284 12.56C74.6284 13.0933 75.1751 13.52 75.8684 13.84C76.5618 14.1467 77.3551 14.3 78.2484 14.3Z" fill="#211313"/>
</svg>
